<svg width="29" height="32" viewBox="0 0 29 32" fill="none" xmlns="http://www.w3.org/2000/svg">
<path d="M27.7373 19.0278L26.2235 18.1444C25.8474 17.9117 25.537 17.5867 25.3217 17.2003C25.1064 16.8138 24.9934 16.3789 24.9934 15.9365C24.9934 15.4942 25.1064 15.0592 25.3217 14.6728C25.537 14.2864 25.8474 13.9614 26.2235 13.7286L27.7373 12.8453C28.0284 12.6889 28.284 12.4741 28.4881 12.2142C28.6922 11.9544 28.8403 11.6552 28.9233 11.3353C29.0062 11.0155 29.0222 10.6819 28.9701 10.3557C28.918 10.0294 28.799 9.71738 28.6206 9.43926L27.3615 7.29591C27.2051 7.00483 26.9903 6.74922 26.7304 6.54512C26.4706 6.34102 26.1714 6.19285 25.8515 6.1099C25.5317 6.02695 25.1982 6.01102 24.8719 6.0631C24.5456 6.11519 24.2336 6.23417 23.9555 6.41257L22.4417 7.29591C22.0614 7.51749 21.6297 7.63549 21.1896 7.63814C20.7495 7.6408 20.3163 7.52803 19.9334 7.31106C19.5505 7.0941 19.2311 6.78054 19.0072 6.40164C18.7833 6.02274 18.6626 5.59176 18.6572 5.15167V3.38499C18.6551 2.71581 18.388 2.07472 17.9144 1.60195C17.4408 1.12919 16.7992 0.863243 16.1301 0.862305L13.6074 0.862305C12.939 0.864418 12.2985 1.13088 11.8259 1.60352C11.3533 2.07616 11.0868 2.71658 11.0847 3.38499V5.02523C11.0795 5.46552 10.959 5.89677 10.7351 6.27591C10.5112 6.65505 10.1917 6.96883 9.80864 7.18592C9.42555 7.40301 8.99222 7.51583 8.55191 7.51309C8.11159 7.51036 7.67969 7.39219 7.29933 7.17036L5.78554 6.41346C5.50543 6.24212 5.19368 6.12894 4.8689 6.08065C4.54411 6.03235 4.21292 6.04995 3.89508 6.13238C3.57724 6.21481 3.27924 6.36039 3.01886 6.56045C2.75848 6.7605 2.54104 7.01093 2.37951 7.2968L1.11772 9.44104C0.809344 10.0362 0.72893 10.7236 0.891588 11.3739C1.05425 12.0242 1.44878 12.5927 2.00106 12.9726L3.51485 13.856C3.88932 14.0749 4.19994 14.3881 4.4158 14.7644C4.63165 15.1406 4.74523 15.5669 4.74523 16.0007C4.74523 16.4344 4.63165 16.8607 4.4158 17.2369C4.19994 17.6132 3.88932 17.9264 3.51485 18.1453L2.00106 19.0287C1.70998 19.185 1.45437 19.3999 1.25027 19.6597C1.04617 19.9196 0.897995 20.2188 0.815046 20.5386C0.732097 20.8585 0.716166 21.192 0.768253 21.5183C0.820339 21.8446 0.939318 22.1566 1.11772 22.4347L2.37951 24.5789C2.53587 24.87 2.75071 25.1256 3.01056 25.3297C3.27041 25.5338 3.56964 25.682 3.88948 25.765C4.20932 25.8479 4.54285 25.8638 4.86914 25.8118C5.19542 25.7597 5.50742 25.6407 5.78554 25.4623L7.29933 24.7054C7.67961 24.4838 8.11133 24.3658 8.55144 24.3632C8.99155 24.3605 9.42467 24.4733 9.8076 24.6902C10.1905 24.9072 10.5099 25.2208 10.7338 25.5997C10.9577 25.9786 11.0784 26.4095 11.0838 26.8496V28.6154C11.0859 29.284 11.3525 29.9245 11.8253 30.3972C12.2982 30.8699 12.9388 31.1362 13.6074 31.1381H16.1301C16.7985 31.136 17.4389 30.8695 17.9115 30.3969C18.3842 29.9243 18.6506 29.2838 18.6528 28.6154V26.977C18.6581 26.5369 18.7788 26.1059 19.0028 25.727C19.2267 25.3481 19.546 25.0345 19.929 24.8176C20.3119 24.6006 20.745 24.4878 21.1851 24.4905C21.6252 24.4932 22.057 24.6112 22.4372 24.8327L23.951 25.7161C24.2311 25.8874 24.5429 26.0006 24.8677 26.0489C25.1924 26.0972 25.5236 26.0796 25.8415 25.9972C26.1593 25.9147 26.4573 25.7691 26.7177 25.5691C26.9781 25.369 27.1955 25.1186 27.357 24.8327L28.6188 22.6885C28.9359 22.0741 29.0214 21.3662 28.8595 20.694C28.6976 20.0219 28.2993 19.4304 27.7373 19.0278ZM14.8692 21.0474C13.8711 21.0474 12.8955 20.7514 12.0657 20.197C11.2359 19.6425 10.5891 18.8545 10.2071 17.9324C9.82515 17.0104 9.72516 15.9958 9.9198 15.0169C10.1144 14.0381 10.595 13.1389 11.3006 12.4332C12.0062 11.7274 12.9053 11.2467 13.8841 11.0519C14.863 10.8571 15.8776 10.9569 16.7997 11.3387C17.7218 11.7205 18.51 12.3672 19.0646 13.1969C19.6192 14.0266 19.9153 15.0022 19.9154 16.0002C19.9117 17.3375 19.3788 18.6189 18.4333 19.5646C17.4878 20.5103 16.2064 21.0434 14.8692 21.0474Z" />
</svg>
